<?xml version="1.0" standalone="no"?>
<!DOCTYPE svg PUBLIC "-//W3C//DTD SVG 20010904//EN"
 "http://www.w3.org/TR/2001/REC-SVG-20010904/DTD/svg10.dtd">
<svg version="1.0" xmlns="http://www.w3.org/2000/svg"
 width="100.000000pt" height="53.000000pt" viewBox="0 0 100.000000 53.000000"
 preserveAspectRatio="xMidYMid meet">

<g transform="translate(0.000000,53.000000) scale(0.100000,-0.100000)"
fill="#000000" stroke="none">
<path d="M470 485 c0 -39 -22 -48 -39 -17 -6 12 -31 21 -82 30 -39 7 -73 11
-75 10 -1 -2 32 -45 73 -96 l76 -93 49 55 c30 34 59 57 78 61 39 9 31 21 -20
29 -34 5 -40 10 -40 31 0 14 -4 25 -10 25 -5 0 -10 -16 -10 -35z"/>
<path d="M337 173 c-9 -8 -9 -110 -1 -140 9 -34 50 -31 62 5 l10 27 11 -27
c14 -36 48 -37 61 -2 6 14 10 52 10 85 0 57 -1 60 -22 57 -20 -3 -23 -9 -22
-47 1 -37 -1 -41 -11 -28 -16 22 -31 21 -44 0 -8 -14 -10 -8 -11 30 0 39 -3
47 -18 47 -10 0 -22 -3 -25 -7z"/>
<path d="M540 134 c-11 -25 -20 -63 -20 -85 0 -35 3 -39 25 -39 20 0 25 5 25
24 0 19 4 23 20 19 11 -3 20 -14 20 -24 0 -14 7 -19 25 -19 23 0 25 3 25 49 0
27 -7 65 -15 85 -13 32 -19 36 -50 36 -33 0 -37 -4 -55 -46z m70 -36 c0 -4 -9
-8 -21 -8 -15 0 -19 4 -15 16 3 9 6 21 6 27 1 13 30 -22 30 -35z"/>
<path d="M703 173 c-9 -3 -13 -30 -13 -84 0 -77 1 -79 24 -79 19 0 25 6 28 28
2 19 9 27 23 27 29 0 34 42 5 47 -32 5 -29 22 5 23 23 0 31 5 33 23 3 20 0 22
-45 21 -26 0 -54 -3 -60 -6z"/>
<path d="M863 154 c-9 -15 -19 -53 -21 -85 -4 -55 -3 -59 17 -59 14 0 21 6 21
20 0 15 7 20 25 20 19 0 25 -5 25 -21 0 -15 5 -20 23 -17 29 4 34 51 12 118
-16 47 -19 50 -51 50 -25 0 -38 -6 -51 -26z m56 -41 c10 -20 9 -23 -9 -23 -19
0 -28 28 -13 43 7 8 7 9 22 -20z"/>
</g>
</svg>
